# xmcd CD database file
#
# Track frame offsets:
#	150
#	9762
#	36018
#	66133
#	122779
#	150250
#	176546
#
# Disc length: 2651 seconds
#
# Revision: 0
# Processed by: cddbd v1.5.1PL0 Copyright (c) Steve Scherf et al.
# Submitted via: CDex 1.51
#
DISCID=460a5907
DTITLE=Jimmy Smith Trio - Live in Detroit
DYEAR=1900
DGENRE=Jazz
TTITLE0=Intro, end of ?
TTITLE1=The Sermon
TTITLE2=All Day Long (Burrell)
TTITLE3=Drum solo with crowd singing - St. Thomas (Rollins)
TTITLE4=Unknown Trackname
TTITLE5=8 Counts for Rita
TTITLE6=What a Wonderful World
EXTD=
EXTT0=
EXTT1=
EXTT2=
EXTT3=
EXTT4=
EXTT5=
EXTT6=
PLAYORDER=
